<svg xmlns="http://www.w3.org/2000/svg" width="1920" height="1080"><path d="M782,1279L503,1272L980,1305Z" fill="#58101b" stroke="#58101b" stroke-width="1.51"/><path d="M503,1272L112,1275L980,1305Z" fill="#60121f" stroke="#60121f" stroke-width="1.51"/><path d="M112,1275L-101,1281L980,1305Z" fill="#681421" stroke="#681421" stroke-width="1.51"/><path d="M1058,-193L1223,-203L1373,-231Z" fill="#aa1030" stroke="#aa1030" stroke-width="1.51"/><path d="M801,-193L1058,-193L1373,-231Z" fill="#af1132" stroke="#af1132" stroke-width="1.51"/><path d="M77,-231L801,-193L1373,-231Z" fill="#be1337" stroke="#be1337" stroke-width="1.51"/><path d="M1209,1290L980,1305L1562,1308Z" fill="#440c15" stroke="#440c15" stroke-width="1.51"/><path d="M1373,-231L1497,-197L1859,-202Z" fill="#9a0e2c" stroke="#9a0e2c" stroke-width="1.51"/><path d="M1373,-231L1859,-202L1963,-227Z" fill="#92122b" stroke="#92122b" stroke-width="1.51"/><path d="M1991,1261L1864,1235L2081,1307Z" fill="#28080c" stroke="#28080c" stroke-width="1.51"/><path d="M1864,1235L1562,1308L2081,1307Z" fill="#2e090e" stroke="#2e090e" stroke-width="1.51"/><path d="M2084,1135L2081,1307L2138,981Z" fill="#2c090d" stroke="#2c090d" stroke-width="1.51"/><path d="M2099,589L2081,728L2138,981Z" fill="#440b15" stroke="#440b15" stroke-width="1.51"/><path d="M2081,728L2081,874L2138,981Z" fill="#3f0a13" stroke="#3f0a13" stroke-width="1.51"/><path d="M2078,-66L1972,155L2161,114Z" fill="#6d1423" stroke="#6d1423" stroke-width="1.51"/><path d="M1972,155L2071,297L2161,114Z" fill="#671221" stroke="#671221" stroke-width="1.51"/><path d="M2071,297L2106,392L2161,114Z" fill="#60121e" stroke="#60121e" stroke-width="1.51"/><path d="M2130,-219L2078,-66L2161,114Z" fill="#721524" stroke="#721524" stroke-width="1.51"/><path d="M2099,589L2138,981L2161,114Z" fill="#4e0e18" stroke="#4e0e18" stroke-width="1.51"/><path d="M2106,392L2099,589L2161,114Z" fill="#5a101c" stroke="#5a101c" stroke-width="1.51"/><path d="M1991,-68L1972,155L2078,-66Z" fill="#741324" stroke="#741324" stroke-width="1.51"/><path d="M1991,1261L2081,1307L2084,1135Z" fill="#27080c" stroke="#27080c" stroke-width="1.51"/><path d="M1965,406L1933,530L2099,589Z" fill="#580e1a" stroke="#580e1a" stroke-width="1.51"/><path d="M2020,634L2081,728L2099,589Z" fill="#4d0c17" stroke="#4d0c17" stroke-width="1.51"/><path d="M1965,406L2099,589L2106,392Z" fill="#580f1b" stroke="#580f1b" stroke-width="1.51"/><path d="M1963,-227L2078,-66L2130,-219Z" fill="#7c1627" stroke="#7c1627" stroke-width="1.51"/><path d="M1979,972L2084,1135L2138,981Z" fill="#36090f" stroke="#36090f" stroke-width="1.51"/><path d="M2081,874L1979,972L2138,981Z" fill="#3c0911" stroke="#3c0911" stroke-width="1.51"/><path d="M1963,-227L1991,-68L2078,-66Z" fill="#7c1526" stroke="#7c1526" stroke-width="1.51"/><path d="M1972,155L1996,294L2071,297Z" fill="#661120" stroke="#661120" stroke-width="1.51"/><path d="M1996,294L1965,406L2071,297Z" fill="#62101e" stroke="#62101e" stroke-width="1.51"/><path d="M2015,875L1979,972L2081,874Z" fill="#400912" stroke="#400912" stroke-width="1.51"/><path d="M2015,875L2081,874L2081,728Z" fill="#430a14" stroke="#430a14" stroke-width="1.51"/><path d="M1979,972L1929,1087L2084,1135Z" fill="#360a10" stroke="#360a10" stroke-width="1.51"/><path d="M1933,530L2020,634L2099,589Z" fill="#530c18" stroke="#530c18" stroke-width="1.51"/><path d="M2071,297L1965,406L2106,392Z" fill="#5e101d" stroke="#5e101d" stroke-width="1.51"/><path d="M1849,815L2015,875L2081,728Z" fill="#480a15" stroke="#480a15" stroke-width="1.51"/><path d="M1929,1087L1991,1261L2084,1135Z" fill="#2f090e" stroke="#2f090e" stroke-width="1.51"/><path d="M2020,634L1849,815L2081,728Z" fill="#4d0b16" stroke="#4d0b16" stroke-width="1.51"/><path d="M1963,-227L1859,-202L1991,-68Z" fill="#831428" stroke="#831428" stroke-width="1.51"/><path d="M1807,87L1972,155L1991,-68Z" fill="#761224" stroke="#761224" stroke-width="1.51"/><path d="M1817,-51L1807,87L1991,-68Z" fill="#7d1226" stroke="#7d1226" stroke-width="1.51"/><path d="M1929,1087L1864,1235L1991,1261Z" fill="#30090f" stroke="#30090f" stroke-width="1.51"/><path d="M1972,155L1856,263L1996,294Z" fill="#6b1020" stroke="#6b1020" stroke-width="1.51"/><path d="M1933,530L1825,662L2020,634Z" fill="#560b19" stroke="#560b19" stroke-width="1.51"/><path d="M1825,662L1849,815L2020,634Z" fill="#520a17" stroke="#520a17" stroke-width="1.51"/><path d="M1849,815L1979,972L2015,875Z" fill="#450914" stroke="#450914" stroke-width="1.51"/><path d="M1497,-197L1715,-149L1859,-202Z" fill="#92112a" stroke="#92112a" stroke-width="1.51"/><path d="M1653,1235L1562,1308L1864,1235Z" fill="#360a10" stroke="#360a10" stroke-width="1.51"/><path d="M1849,815L1804,970L1979,972Z" fill="#470814" stroke="#470814" stroke-width="1.51"/><path d="M1859,-202L1817,-51L1991,-68Z" fill="#821328" stroke="#821328" stroke-width="1.51"/><path d="M1856,263L1965,406L1996,294Z" fill="#660f1e" stroke="#660f1e" stroke-width="1.51"/><path d="M1853,1098L1864,1235L1929,1087Z" fill="#360910" stroke="#360910" stroke-width="1.51"/><path d="M1856,263L1804,403L1965,406Z" fill="#680e1f" stroke="#680e1f" stroke-width="1.51"/><path d="M1824,494L1933,530L1965,406Z" fill="#5f0d1b" stroke="#5f0d1b" stroke-width="1.51"/><path d="M1804,970L1929,1087L1979,972Z" fill="#3f0812" stroke="#3f0812" stroke-width="1.51"/><path d="M1807,87L1856,263L1972,155Z" fill="#731023" stroke="#731023" stroke-width="1.51"/><path d="M1804,970L1853,1098L1929,1087Z" fill="#3d0912" stroke="#3d0912" stroke-width="1.51"/><path d="M1804,403L1824,494L1965,406Z" fill="#640d1d" stroke="#640d1d" stroke-width="1.51"/><path d="M1824,494L1825,662L1933,530Z" fill="#5c0b1a" stroke="#5c0b1a" stroke-width="1.51"/><path d="M1824,494L1696,574L1825,662Z" fill="#600a1b" stroke="#600a1b" stroke-width="1.51"/><path d="M1733,936L1804,970L1849,815Z" fill="#4c0815" stroke="#4c0815" stroke-width="1.51"/><path d="M1825,662L1699,806L1849,815Z" fill="#540917" stroke="#540917" stroke-width="1.51"/><path d="M1804,970L1699,1079L1853,1098Z" fill="#420913" stroke="#420913" stroke-width="1.51"/><path d="M1807,87L1640,287L1856,263Z" fill="#760f23" stroke="#760f23" stroke-width="1.51"/><path d="M1715,-149L1817,-51L1859,-202Z" fill="#891229" stroke="#891229" stroke-width="1.51"/><path d="M1853,1098L1699,1079L1864,1235Z" fill="#3a0911" stroke="#3a0911" stroke-width="1.51"/><path d="M1699,1079L1653,1235L1864,1235Z" fill="#3a0911" stroke="#3a0911" stroke-width="1.51"/><path d="M1699,806L1733,936L1849,815Z" fill="#500816" stroke="#500816" stroke-width="1.51"/><path d="M1640,287L1804,403L1856,263Z" fill="#700e20" stroke="#700e20" stroke-width="1.51"/><path d="M1699,64L1640,287L1807,87Z" fill="#7d0f25" stroke="#7d0f25" stroke-width="1.51"/><path d="M1699,64L1807,87L1817,-51Z" fill="#801126" stroke="#801126" stroke-width="1.51"/><path d="M1683,-38L1699,64L1817,-51Z" fill="#851027" stroke="#851027" stroke-width="1.51"/><path d="M1804,403L1670,427L1824,494Z" fill="#690c1d" stroke="#690c1d" stroke-width="1.51"/><path d="M1663,688L1699,806L1825,662Z" fill="#5a0919" stroke="#5a0919" stroke-width="1.51"/><path d="M1696,574L1663,688L1825,662Z" fill="#5f091a" stroke="#5f091a" stroke-width="1.51"/><path d="M1640,287L1670,427L1804,403Z" fill="#700c20" stroke="#700c20" stroke-width="1.51"/><path d="M1670,427L1696,574L1824,494Z" fill="#670a1c" stroke="#670a1c" stroke-width="1.51"/><path d="M1733,936L1699,1079L1804,970Z" fill="#480814" stroke="#480814" stroke-width="1.51"/><path d="M1715,-149L1683,-38L1817,-51Z" fill="#881028" stroke="#881028" stroke-width="1.51"/><path d="M1585,229L1640,287L1699,64Z" fill="#7e0d24" stroke="#7e0d24" stroke-width="1.51"/><path d="M77,-231L402,-160L801,-193Z" fill="#ca163b" stroke="#ca163b" stroke-width="1.51"/><path d="M1567,64L1585,229L1699,64Z" fill="#840d26" stroke="#840d26" stroke-width="1.51"/><path d="M1544,1004L1699,1079L1733,936Z" fill="#4b0715" stroke="#4b0715" stroke-width="1.51"/><path d="M1699,806L1558,819L1733,936Z" fill="#550717" stroke="#550717" stroke-width="1.51"/><path d="M1558,819L1544,1004L1733,936Z" fill="#540616" stroke="#540616" stroke-width="1.51"/><path d="M1670,427L1571,519L1696,574Z" fill="#6b091d" stroke="#6b091d" stroke-width="1.51"/><path d="M1542,1148L1653,1235L1699,1079Z" fill="#410812" stroke="#410812" stroke-width="1.51"/><path d="M1538,-52L1683,-38L1715,-149Z" fill="#8f0f29" stroke="#8f0f29" stroke-width="1.51"/><path d="M1497,-197L1538,-52L1715,-149Z" fill="#950e2b" stroke="#950e2b" stroke-width="1.51"/><path d="M1577,668L1663,688L1696,574Z" fill="#63081a" stroke="#63081a" stroke-width="1.51"/><path d="M1683,-38L1567,64L1699,64Z" fill="#870f27" stroke="#870f27" stroke-width="1.51"/><path d="M1544,1004L1542,1148L1699,1079Z" fill="#490714" stroke="#490714" stroke-width="1.51"/><path d="M1663,688L1558,819L1699,806Z" fill="#5b0718" stroke="#5b0718" stroke-width="1.51"/><path d="M1571,519L1577,668L1696,574Z" fill="#68081b" stroke="#68081b" stroke-width="1.51"/><path d="M1577,668L1558,819L1663,688Z" fill="#610719" stroke="#610719" stroke-width="1.51"/><path d="M1640,287L1510,407L1670,427Z" fill="#750a20" stroke="#750a20" stroke-width="1.51"/><path d="M1538,-52L1567,64L1683,-38Z" fill="#8d0e28" stroke="#8d0e28" stroke-width="1.51"/><path d="M1510,407L1571,519L1670,427Z" fill="#72081f" stroke="#72081f" stroke-width="1.51"/><path d="M1542,1148L1562,1308L1653,1235Z" fill="#3e0912" stroke="#3e0912" stroke-width="1.51"/><path d="M1585,229L1510,407L1640,287Z" fill="#7b0a22" stroke="#7b0a22" stroke-width="1.51"/><path d="M1437,839L1401,967L1544,1004Z" fill="#590517" stroke="#590517" stroke-width="1.51"/><path d="M1437,839L1544,1004L1558,819Z" fill="#5b0517" stroke="#5b0517" stroke-width="1.51"/><path d="M1357,1229L1209,1290L1562,1308Z" fill="#420a13" stroke="#420a13" stroke-width="1.51"/><path d="M1542,1148L1357,1229L1562,1308Z" fill="#410a13" stroke="#410a13" stroke-width="1.51"/><path d="M1437,839L1558,819L1577,668Z" fill="#610619" stroke="#610619" stroke-width="1.51"/><path d="M1357,699L1437,839L1577,668Z" fill="#66071b" stroke="#66071b" stroke-width="1.51"/><path d="M1571,519L1442,537L1577,668Z" fill="#6d071d" stroke="#6d071d" stroke-width="1.51"/><path d="M1412,280L1510,407L1585,229Z" fill="#7e0a23" stroke="#7e0a23" stroke-width="1.51"/><path d="M1567,64L1444,108L1585,229Z" fill="#870c27" stroke="#870c27" stroke-width="1.51"/><path d="M1444,108L1412,280L1585,229Z" fill="#850c26" stroke="#850c26" stroke-width="1.51"/><path d="M1510,407L1442,537L1571,519Z" fill="#73081f" stroke="#73081f" stroke-width="1.51"/><path d="M1442,537L1357,699L1577,668Z" fill="#6c071d" stroke="#6c071d" stroke-width="1.51"/><path d="M1394,1123L1542,1148L1544,1004Z" fill="#4c0815" stroke="#4c0815" stroke-width="1.51"/><path d="M1538,-52L1444,108L1567,64Z" fill="#8e0d28" stroke="#8e0d28" stroke-width="1.51"/><path d="M1394,1123L1357,1229L1542,1148Z" fill="#480915" stroke="#480915" stroke-width="1.51"/><path d="M1412,280L1441,411L1510,407Z" fill="#7c0a22" stroke="#7c0a22" stroke-width="1.51"/><path d="M1441,411L1442,537L1510,407Z" fill="#770920" stroke="#770920" stroke-width="1.51"/><path d="M1497,-197L1353,6L1538,-52Z" fill="#970e2b" stroke="#970e2b" stroke-width="1.51"/><path d="M1353,6L1444,108L1538,-52Z" fill="#910d29" stroke="#910d29" stroke-width="1.51"/><path d="M1401,967L1394,1123L1544,1004Z" fill="#520716" stroke="#520716" stroke-width="1.51"/><path d="M1373,-231L1353,6L1497,-197Z" fill="#9d0e2d" stroke="#9d0e2d" stroke-width="1.51"/><path d="M402,-160L552,-153L801,-193Z" fill="#c21538" stroke="#c21538" stroke-width="1.51"/><path d="M1211,-74L1353,6L1373,-231Z" fill="#9f0f2d" stroke="#9f0f2d" stroke-width="1.51"/><path d="M1296,989L1394,1123L1401,967Z" fill="#560818" stroke="#560818" stroke-width="1.51"/><path d="M1258,865L1401,967L1437,839Z" fill="#600619" stroke="#600619" stroke-width="1.51"/><path d="M1357,699L1258,865L1437,839Z" fill="#65071b" stroke="#65071b" stroke-width="1.51"/><path d="M1412,280L1260,411L1441,411Z" fill="#7f0a23" stroke="#7f0a23" stroke-width="1.51"/><path d="M1260,411L1293,553L1441,411Z" fill="#7c0921" stroke="#7c0921" stroke-width="1.51"/><path d="M1441,411L1293,553L1442,537Z" fill="#770820" stroke="#770820" stroke-width="1.51"/><path d="M1293,553L1357,699L1442,537Z" fill="#72071e" stroke="#72071e" stroke-width="1.51"/><path d="M1353,6L1278,137L1444,108Z" fill="#910e2a" stroke="#910e2a" stroke-width="1.51"/><path d="M1277,210L1412,280L1444,108Z" fill="#8a0c27" stroke="#8a0c27" stroke-width="1.51"/><path d="M1278,137L1277,210L1444,108Z" fill="#8e0e28" stroke="#8e0e28" stroke-width="1.51"/><path d="M1293,553L1269,670L1357,699Z" fill="#71081e" stroke="#71081e" stroke-width="1.51"/><path d="M1223,-203L1211,-74L1373,-231Z" fill="#a50f2f" stroke="#a50f2f" stroke-width="1.51"/><path d="M1296,989L1267,1088L1394,1123Z" fill="#550917" stroke="#550917" stroke-width="1.51"/><path d="M1258,865L1296,989L1401,967Z" fill="#5f0619" stroke="#5f0619" stroke-width="1.51"/><path d="M1277,210L1260,411L1412,280Z" fill="#860c25" stroke="#860c25" stroke-width="1.51"/><path d="M1267,1088L1357,1229L1394,1123Z" fill="#4d0916" stroke="#4d0916" stroke-width="1.51"/><path d="M1269,670L1258,865L1357,699Z" fill="#6b071c" stroke="#6b071c" stroke-width="1.51"/><path d="M1267,1088L1209,1290L1357,1229Z" fill="#4b0b16" stroke="#4b0b16" stroke-width="1.51"/><path d="M1211,-74L1278,137L1353,6Z" fill="#980e2c" stroke="#980e2c" stroke-width="1.51"/><path d="M1131,1247L1209,1290L1267,1088Z" fill="#4e0b17" stroke="#4e0b17" stroke-width="1.51"/><path d="M1090,697L1258,865L1269,670Z" fill="#6f071e" stroke="#6f071e" stroke-width="1.51"/><path d="M1136,289L1260,411L1277,210Z" fill="#8a0c26" stroke="#8a0c26" stroke-width="1.51"/><path d="M1211,-74L1061,151L1278,137Z" fill="#9a0f2c" stroke="#9a0f2c" stroke-width="1.51"/><path d="M1260,411L1145,408L1293,553Z" fill="#800a23" stroke="#800a23" stroke-width="1.51"/><path d="M1145,408L1080,581L1293,553Z" fill="#7f0922" stroke="#7f0922" stroke-width="1.51"/><path d="M1080,581L1269,670L1293,553Z" fill="#770820" stroke="#770820" stroke-width="1.51"/><path d="M1084,955L1267,1088L1296,989Z" fill="#5d0819" stroke="#5d0819" stroke-width="1.51"/><path d="M1258,865L1084,955L1296,989Z" fill="#63061a" stroke="#63061a" stroke-width="1.51"/><path d="M1117,-81L1061,151L1211,-74Z" fill="#a00f2e" stroke="#a00f2e" stroke-width="1.51"/><path d="M1090,697L1055,849L1258,865Z" fill="#6e071d" stroke="#6e071d" stroke-width="1.51"/><path d="M1136,289L1145,408L1260,411Z" fill="#870b25" stroke="#870b25" stroke-width="1.51"/><path d="M1081,1154L1131,1247L1267,1088Z" fill="#530b18" stroke="#530b18" stroke-width="1.51"/><path d="M1061,151L1136,289L1277,210Z" fill="#920d29" stroke="#920d29" stroke-width="1.51"/><path d="M1061,151L1277,210L1278,137Z" fill="#930e2a" stroke="#930e2a" stroke-width="1.51"/><path d="M1084,955L1081,1154L1267,1088Z" fill="#5b0a19" stroke="#5b0a19" stroke-width="1.51"/><path d="M1080,581L1090,697L1269,670Z" fill="#770820" stroke="#770820" stroke-width="1.51"/><path d="M1055,849L1084,955L1258,865Z" fill="#69071c" stroke="#69071c" stroke-width="1.51"/><path d="M1131,1247L980,1305L1209,1290Z" fill="#4c0d17" stroke="#4c0d17" stroke-width="1.51"/><path d="M1117,-81L1211,-74L1223,-203Z" fill="#a6102f" stroke="#a6102f" stroke-width="1.51"/><path d="M1058,-193L1117,-81L1223,-203Z" fill="#aa1030" stroke="#aa1030" stroke-width="1.51"/><path d="M1000,104L1061,151L1117,-81Z" fill="#a00f2e" stroke="#a00f2e" stroke-width="1.51"/><path d="M801,-193L944,-161L1058,-193Z" fill="#b41133" stroke="#b41133" stroke-width="1.51"/><path d="M993,954L1081,1154L1084,955Z" fill="#62091b" stroke="#62091b" stroke-width="1.51"/><path d="M985,-34L1000,104L1117,-81Z" fill="#a5102f" stroke="#a5102f" stroke-width="1.51"/><path d="M990,544L1080,581L1145,408Z" fill="#830a23" stroke="#830a23" stroke-width="1.51"/><path d="M955,425L990,544L1145,408Z" fill="#880a25" stroke="#880a25" stroke-width="1.51"/><path d="M1136,289L955,425L1145,408Z" fill="#8b0c26" stroke="#8b0c26" stroke-width="1.51"/><path d="M979,780L1055,849L1090,697Z" fill="#74081f" stroke="#74081f" stroke-width="1.51"/><path d="M1061,151L915,266L1136,289Z" fill="#960d2a" stroke="#960d2a" stroke-width="1.51"/><path d="M915,266L955,425L1136,289Z" fill="#910d28" stroke="#910d28" stroke-width="1.51"/><path d="M1081,1154L980,1305L1131,1247Z" fill="#500d18" stroke="#500d18" stroke-width="1.51"/><path d="M993,954L930,1137L1081,1154Z" fill="#600b1b" stroke="#600b1b" stroke-width="1.51"/><path d="M1058,-193L985,-34L1117,-81Z" fill="#aa1031" stroke="#aa1031" stroke-width="1.51"/><path d="M944,-161L985,-34L1058,-193Z" fill="#ae1131" stroke="#ae1131" stroke-width="1.51"/><path d="M990,544L931,649L1080,581Z" fill="#810922" stroke="#810922" stroke-width="1.51"/><path d="M930,1137L980,1305L1081,1154Z" fill="#560d19" stroke="#560d19" stroke-width="1.51"/><path d="M1055,849L993,954L1084,955Z" fill="#6b071c" stroke="#6b071c" stroke-width="1.51"/><path d="M1080,581L931,649L1090,697Z" fill="#7c0921" stroke="#7c0921" stroke-width="1.51"/><path d="M931,649L979,780L1090,697Z" fill="#7a0920" stroke="#7a0920" stroke-width="1.51"/><path d="M1000,104L915,266L1061,151Z" fill="#9b0f2c" stroke="#9b0f2c" stroke-width="1.51"/><path d="M979,780L993,954L1055,849Z" fill="#70081e" stroke="#70081e" stroke-width="1.51"/><path d="M931,649L860,683L979,780Z" fill="#7d0921" stroke="#7d0921" stroke-width="1.51"/><path d="M850,1084L930,1137L993,954Z" fill="#640a1c" stroke="#640a1c" stroke-width="1.51"/><path d="M826,1022L850,1084L993,954Z" fill="#690a1d" stroke="#690a1d" stroke-width="1.51"/><path d="M979,780L769,788L993,954Z" fill="#75081f" stroke="#75081f" stroke-width="1.51"/><path d="M769,788L826,1022L993,954Z" fill="#72081f" stroke="#72081f" stroke-width="1.51"/><path d="M985,-34L826,96L1000,104Z" fill="#a5102f" stroke="#a5102f" stroke-width="1.51"/><path d="M826,96L915,266L1000,104Z" fill="#a0102d" stroke="#a0102d" stroke-width="1.51"/><path d="M930,1137L782,1279L980,1305Z" fill="#570e1a" stroke="#570e1a" stroke-width="1.51"/><path d="M944,-161L820,-71L985,-34Z" fill="#af1132" stroke="#af1132" stroke-width="1.51"/><path d="M820,-71L826,96L985,-34Z" fill="#ab1131" stroke="#ab1131" stroke-width="1.51"/><path d="M955,425L825,411L990,544Z" fill="#8c0b26" stroke="#8c0b26" stroke-width="1.51"/><path d="M769,569L931,649L990,544Z" fill="#850a24" stroke="#850a24" stroke-width="1.51"/><path d="M825,411L769,569L990,544Z" fill="#8c0b26" stroke="#8c0b26" stroke-width="1.51"/><path d="M915,266L825,411L955,425Z" fill="#930d29" stroke="#930d29" stroke-width="1.51"/><path d="M860,683L769,788L979,780Z" fill="#7c0922" stroke="#7c0922" stroke-width="1.51"/><path d="M244,1247L112,1275L503,1272Z" fill="#6c1322" stroke="#6c1322" stroke-width="1.51"/><path d="M826,96L791,223L915,266Z" fill="#a00f2d" stroke="#a00f2d" stroke-width="1.51"/><path d="M769,569L860,683L931,649Z" fill="#840a24" stroke="#840a24" stroke-width="1.51"/><path d="M801,-193L820,-71L944,-161Z" fill="#b51234" stroke="#b51234" stroke-width="1.51"/><path d="M850,1084L782,1279L930,1137Z" fill="#5e0d1b" stroke="#5e0d1b" stroke-width="1.51"/><path d="M791,223L825,411L915,266Z" fill="#990e2b" stroke="#990e2b" stroke-width="1.51"/><path d="M552,-153L674,-137L801,-193Z" fill="#bd1337" stroke="#bd1337" stroke-width="1.51"/><path d="M791,223L711,280L825,411Z" fill="#9c0e2c" stroke="#9c0e2c" stroke-width="1.51"/><path d="M769,788L717,1019L826,1022Z" fill="#740920" stroke="#740920" stroke-width="1.51"/><path d="M820,-71L687,81L826,96Z" fill="#ad1132" stroke="#ad1132" stroke-width="1.51"/><path d="M667,1090L698,1228L850,1084Z" fill="#650e1e" stroke="#650e1e" stroke-width="1.51"/><path d="M698,1228L782,1279L850,1084Z" fill="#5f0e1c" stroke="#5f0e1c" stroke-width="1.51"/><path d="M769,569L677,717L860,683Z" fill="#860a25" stroke="#860a25" stroke-width="1.51"/><path d="M677,717L769,788L860,683Z" fill="#810a23" stroke="#810a23" stroke-width="1.51"/><path d="M826,1022L717,1019L850,1084Z" fill="#6b0b1e" stroke="#6b0b1e" stroke-width="1.51"/><path d="M717,1019L667,1090L850,1084Z" fill="#6a0d1e" stroke="#6a0d1e" stroke-width="1.51"/><path d="M686,780L717,1019L769,788Z" fill="#7b0a22" stroke="#7b0a22" stroke-width="1.51"/><path d="M698,1228L503,1272L782,1279Z" fill="#5e101d" stroke="#5e101d" stroke-width="1.51"/><path d="M672,-66L687,81L820,-71Z" fill="#b31234" stroke="#b31234" stroke-width="1.51"/><path d="M801,-193L674,-137L820,-71Z" fill="#b81235" stroke="#b81235" stroke-width="1.51"/><path d="M640,411L769,569L825,411Z" fill="#930d29" stroke="#930d29" stroke-width="1.51"/><path d="M711,280L640,411L825,411Z" fill="#9a0f2b" stroke="#9a0f2b" stroke-width="1.51"/><path d="M687,81L791,223L826,96Z" fill="#a71130" stroke="#a71130" stroke-width="1.51"/><path d="M674,-137L672,-66L820,-71Z" fill="#b71235" stroke="#b71235" stroke-width="1.51"/><path d="M640,411L647,552L769,569Z" fill="#930d28" stroke="#930d28" stroke-width="1.51"/><path d="M677,717L686,780L769,788Z" fill="#820a24" stroke="#820a24" stroke-width="1.51"/><path d="M687,81L711,280L791,223Z" fill="#a4102f" stroke="#a4102f" stroke-width="1.51"/><path d="M647,552L677,717L769,569Z" fill="#8c0c26" stroke="#8c0c26" stroke-width="1.51"/><path d="M686,780L574,786L717,1019Z" fill="#7d0a23" stroke="#7d0a23" stroke-width="1.51"/><path d="M510,101L533,290L687,81Z" fill="#ad1333" stroke="#ad1333" stroke-width="1.51"/><path d="M687,81L533,290L711,280Z" fill="#a61130" stroke="#a61130" stroke-width="1.51"/><path d="M533,290L640,411L711,280Z" fill="#a0102e" stroke="#a0102e" stroke-width="1.51"/><path d="M474,991L667,1090L717,1019Z" fill="#720d20" stroke="#720d20" stroke-width="1.51"/><path d="M574,786L474,991L717,1019Z" fill="#7c0a22" stroke="#7c0a22" stroke-width="1.51"/><path d="M647,552L530,585L677,717Z" fill="#8e0c27" stroke="#8e0c27" stroke-width="1.51"/><path d="M530,585L503,675L677,717Z" fill="#8e0c28" stroke="#8e0c28" stroke-width="1.51"/><path d="M672,-66L545,-79L687,81Z" fill="#b61335" stroke="#b61335" stroke-width="1.51"/><path d="M545,-79L510,101L687,81Z" fill="#b51335" stroke="#b51335" stroke-width="1.51"/><path d="M667,1090L512,1116L698,1228Z" fill="#680f1f" stroke="#680f1f" stroke-width="1.51"/><path d="M512,1116L503,1272L698,1228Z" fill="#65101f" stroke="#65101f" stroke-width="1.51"/><path d="M677,717L574,786L686,780Z" fill="#840b25" stroke="#840b25" stroke-width="1.51"/><path d="M474,991L512,1116L667,1090Z" fill="#720e21" stroke="#720e21" stroke-width="1.51"/><path d="M640,411L518,443L647,552Z" fill="#990e2b" stroke="#990e2b" stroke-width="1.51"/><path d="M545,-79L672,-66L674,-137Z" fill="#bb1336" stroke="#bb1336" stroke-width="1.51"/><path d="M552,-153L545,-79L674,-137Z" fill="#bf1437" stroke="#bf1437" stroke-width="1.51"/><path d="M503,675L574,786L677,717Z" fill="#890c26" stroke="#890c26" stroke-width="1.51"/><path d="M77,-231L227,-155L402,-160Z" fill="#d1173d" stroke="#d1173d" stroke-width="1.51"/><path d="M533,290L518,443L640,411Z" fill="#a00f2d" stroke="#a00f2d" stroke-width="1.51"/><path d="M518,443L530,585L647,552Z" fill="#970d2a" stroke="#970d2a" stroke-width="1.51"/><path d="M-212,-206L-93,-202L77,-231Z" fill="#e01941" stroke="#e01941" stroke-width="1.51"/><path d="M349,1227L244,1247L503,1272Z" fill="#6a1221" stroke="#6a1221" stroke-width="1.51"/><path d="M510,101L357,229L533,290Z" fill="#af1333" stroke="#af1333" stroke-width="1.51"/><path d="M405,369L518,443L533,290Z" fill="#a3102f" stroke="#a3102f" stroke-width="1.51"/><path d="M418,-27L510,101L545,-79Z" fill="#bb1437" stroke="#bb1437" stroke-width="1.51"/><path d="M503,675L420,825L574,786Z" fill="#8a0c27" stroke="#8a0c27" stroke-width="1.51"/><path d="M420,825L474,991L574,786Z" fill="#830c25" stroke="#830c25" stroke-width="1.51"/><path d="M402,-160L545,-79L552,-153Z" fill="#c31539" stroke="#c31539" stroke-width="1.51"/><path d="M518,443L333,574L530,585Z" fill="#9a0e2b" stroke="#9a0e2b" stroke-width="1.51"/><path d="M402,-160L418,-27L545,-79Z" fill="#c21539" stroke="#c21539" stroke-width="1.51"/><path d="M349,1227L503,1272L512,1116Z" fill="#6a1120" stroke="#6a1120" stroke-width="1.51"/><path d="M373,1107L349,1227L512,1116Z" fill="#701122" stroke="#701122" stroke-width="1.51"/><path d="M390,664L503,675L530,585Z" fill="#930e29" stroke="#930e29" stroke-width="1.51"/><path d="M357,229L405,369L533,290Z" fill="#aa1231" stroke="#aa1231" stroke-width="1.51"/><path d="M333,574L390,664L530,585Z" fill="#970e2b" stroke="#970e2b" stroke-width="1.51"/><path d="M400,997L373,1107L474,991Z" fill="#7a0f24" stroke="#7a0f24" stroke-width="1.51"/><path d="M420,825L400,997L474,991Z" fill="#820b25" stroke="#820b25" stroke-width="1.51"/><path d="M390,664L420,825L503,675Z" fill="#8f0d29" stroke="#8f0d29" stroke-width="1.51"/><path d="M335,127L357,229L510,101Z" fill="#b51435" stroke="#b51435" stroke-width="1.51"/><path d="M474,991L373,1107L512,1116Z" fill="#750f23" stroke="#750f23" stroke-width="1.51"/><path d="M405,369L333,574L518,443Z" fill="#a1102e" stroke="#a1102e" stroke-width="1.51"/><path d="M418,-27L335,127L510,101Z" fill="#b91537" stroke="#b91537" stroke-width="1.51"/><path d="M227,-155L214,-39L402,-160Z" fill="#cb173c" stroke="#cb173c" stroke-width="1.51"/><path d="M225,419L333,574L405,369Z" fill="#a51030" stroke="#a51030" stroke-width="1.51"/><path d="M402,-160L214,-39L418,-27Z" fill="#c6163b" stroke="#c6163b" stroke-width="1.51"/><path d="M214,-39L335,127L418,-27Z" fill="#c11639" stroke="#c11639" stroke-width="1.51"/><path d="M390,664L265,669L420,825Z" fill="#920e2a" stroke="#920e2a" stroke-width="1.51"/><path d="M265,669L269,851L420,825Z" fill="#900e29" stroke="#900e29" stroke-width="1.51"/><path d="M269,851L400,997L420,825Z" fill="#870c27" stroke="#870c27" stroke-width="1.51"/><path d="M269,851L216,941L400,997Z" fill="#870c26" stroke="#870c26" stroke-width="1.51"/><path d="M205,1078L373,1107L400,997Z" fill="#7b1025" stroke="#7b1025" stroke-width="1.51"/><path d="M357,229L225,419L405,369Z" fill="#ac1232" stroke="#ac1232" stroke-width="1.51"/><path d="M216,941L205,1078L400,997Z" fill="#820e26" stroke="#820e26" stroke-width="1.51"/><path d="M225,419L211,534L333,574Z" fill="#a4102f" stroke="#a4102f" stroke-width="1.51"/><path d="M214,-39L200,84L335,127Z" fill="#c11639" stroke="#c11639" stroke-width="1.51"/><path d="M187,234L225,419L357,229Z" fill="#b21334" stroke="#b21334" stroke-width="1.51"/><path d="M333,574L265,669L390,664Z" fill="#990f2c" stroke="#990f2c" stroke-width="1.51"/><path d="M244,1247L349,1227L373,1107Z" fill="#701223" stroke="#701223" stroke-width="1.51"/><path d="M205,1078L244,1247L373,1107Z" fill="#761124" stroke="#761124" stroke-width="1.51"/><path d="M335,127L187,234L357,229Z" fill="#b61436" stroke="#b61436" stroke-width="1.51"/><path d="M211,534L265,669L333,574Z" fill="#9e0f2d" stroke="#9e0f2d" stroke-width="1.51"/><path d="M200,84L187,234L335,127Z" fill="#bc1638" stroke="#bc1638" stroke-width="1.51"/><path d="M205,1078L112,1275L244,1247Z" fill="#741324" stroke="#741324" stroke-width="1.51"/><path d="M211,534L49,639L265,669Z" fill="#a10f2e" stroke="#a10f2e" stroke-width="1.51"/><path d="M49,639L73,859L265,669Z" fill="#9b0e2c" stroke="#9b0e2c" stroke-width="1.51"/><path d="M265,669L73,859L269,851Z" fill="#940e2a" stroke="#940e2a" stroke-width="1.51"/><path d="M73,859L216,941L269,851Z" fill="#8f0d29" stroke="#8f0d29" stroke-width="1.51"/><path d="M132,226L49,401L187,234Z" fill="#b71436" stroke="#b71436" stroke-width="1.51"/><path d="M98,129L132,226L187,234Z" fill="#bd1438" stroke="#bd1438" stroke-width="1.51"/><path d="M98,129L187,234L200,84Z" fill="#bf1639" stroke="#bf1639" stroke-width="1.51"/><path d="M87,1088L112,1275L205,1078Z" fill="#7b1226" stroke="#7b1226" stroke-width="1.51"/><path d="M90,998L205,1078L216,941Z" fill="#850f27" stroke="#850f27" stroke-width="1.51"/><path d="M187,234L49,401L225,419Z" fill="#b21234" stroke="#b21234" stroke-width="1.51"/><path d="M49,401L39,526L211,534Z" fill="#ab1131" stroke="#ab1131" stroke-width="1.51"/><path d="M58,-41L200,84L214,-39Z" fill="#c8163b" stroke="#c8163b" stroke-width="1.51"/><path d="M49,401L211,534L225,419Z" fill="#ac1131" stroke="#ac1131" stroke-width="1.51"/><path d="M58,-41L214,-39L227,-155Z" fill="#cd173d" stroke="#cd173d" stroke-width="1.51"/><path d="M77,-231L58,-41L227,-155Z" fill="#d4183e" stroke="#d4183e" stroke-width="1.51"/><path d="M39,526L49,639L211,534Z" fill="#a7102f" stroke="#a7102f" stroke-width="1.51"/><path d="M73,859L90,998L216,941Z" fill="#8e0d28" stroke="#8e0d28" stroke-width="1.51"/><path d="M58,-41L98,129L200,84Z" fill="#c7173b" stroke="#c7173b" stroke-width="1.51"/><path d="M90,998L87,1088L205,1078Z" fill="#831027" stroke="#831027" stroke-width="1.51"/><path d="M49,639L-9,665L73,859Z" fill="#9f0f2e" stroke="#9f0f2e" stroke-width="1.51"/><path d="M58,-41L-54,58L98,129Z" fill="#cb173c" stroke="#cb173c" stroke-width="1.51"/><path d="M87,1088L-71,1087L112,1275Z" fill="#7e1326" stroke="#7e1326" stroke-width="1.51"/><path d="M-71,1087L-101,1281L112,1275Z" fill="#7b1526" stroke="#7b1526" stroke-width="1.51"/><path d="M98,129L-103,250L132,226Z" fill="#c01539" stroke="#c01539" stroke-width="1.51"/><path d="M-103,250L49,401L132,226Z" fill="#bc1437" stroke="#bc1437" stroke-width="1.51"/><path d="M-103,250L-60,388L49,401Z" fill="#bb1336" stroke="#bb1336" stroke-width="1.51"/><path d="M-93,-202L58,-41L77,-231Z" fill="#d9183f" stroke="#d9183f" stroke-width="1.51"/><path d="M73,859L-54,959L90,998Z" fill="#910d29" stroke="#910d29" stroke-width="1.51"/><path d="M-9,665L-91,841L73,859Z" fill="#9c0f2c" stroke="#9c0f2c" stroke-width="1.51"/><path d="M-71,1087L87,1088L90,998Z" fill="#861128" stroke="#861128" stroke-width="1.51"/><path d="M-54,58L-103,250L98,129Z" fill="#c6163b" stroke="#c6163b" stroke-width="1.51"/><path d="M-93,-202L-81,-33L58,-41Z" fill="#d7183f" stroke="#d7183f" stroke-width="1.51"/><path d="M-54,959L-71,1087L90,998Z" fill="#8c1029" stroke="#8c1029" stroke-width="1.51"/><path d="M39,526L-55,551L49,639Z" fill="#aa1031" stroke="#aa1031" stroke-width="1.51"/><path d="M-91,841L-54,959L73,859Z" fill="#970e2b" stroke="#970e2b" stroke-width="1.51"/><path d="M-60,388L-55,551L39,526Z" fill="#b11132" stroke="#b11132" stroke-width="1.51"/><path d="M-55,551L-9,665L49,639Z" fill="#a71030" stroke="#a71030" stroke-width="1.51"/><path d="M-60,388L39,526L49,401Z" fill="#b21234" stroke="#b21234" stroke-width="1.51"/><path d="M-81,-33L-54,58L58,-41Z" fill="#d1173d" stroke="#d1173d" stroke-width="1.51"/><path d="M-55,551L-156,667L-9,665Z" fill="#aa1030" stroke="#aa1030" stroke-width="1.51"/><path d="M-156,667L-91,841L-9,665Z" fill="#a40f2e" stroke="#a40f2e" stroke-width="1.51"/><path d="M-225,1127L-231,1247L-101,1281Z" fill="#821528" stroke="#821528" stroke-width="1.51"/><path d="M-212,-206L-184,-21L-93,-202Z" fill="#e01842" stroke="#e01842" stroke-width="1.51"/><path d="M-156,667L-232,801L-91,841Z" fill="#a30f2e" stroke="#a30f2e" stroke-width="1.51"/><path d="M-93,-202L-184,-21L-81,-33Z" fill="#da1840" stroke="#da1840" stroke-width="1.51"/><path d="M-225,1127L-101,1281L-71,1087Z" fill="#841428" stroke="#841428" stroke-width="1.51"/><path d="M-103,250L-164,357L-60,388Z" fill="#bf1437" stroke="#bf1437" stroke-width="1.51"/><path d="M-244,585L-156,667L-55,551Z" fill="#af1032" stroke="#af1032" stroke-width="1.51"/><path d="M-60,388L-164,357L-55,551Z" fill="#b71235" stroke="#b71235" stroke-width="1.51"/><path d="M-164,357L-244,585L-55,551Z" fill="#b61134" stroke="#b61134" stroke-width="1.51"/><path d="M-187,960L-71,1087L-54,959Z" fill="#91102a" stroke="#91102a" stroke-width="1.51"/><path d="M-91,841L-187,960L-54,959Z" fill="#980e2b" stroke="#980e2b" stroke-width="1.51"/><path d="M-242,117L-103,250L-54,58Z" fill="#cc173c" stroke="#cc173c" stroke-width="1.51"/><path d="M-81,-33L-184,-21L-54,58Z" fill="#d4173e" stroke="#d4173e" stroke-width="1.51"/><path d="M-184,-21L-242,117L-54,58Z" fill="#d3173e" stroke="#d3173e" stroke-width="1.51"/><path d="M-187,960L-225,1127L-71,1087Z" fill="#8e112a" stroke="#8e112a" stroke-width="1.51"/><path d="M-242,117L-229,281L-103,250Z" fill="#c9163b" stroke="#c9163b" stroke-width="1.51"/><path d="M-232,801L-187,960L-91,841Z" fill="#9d0e2d" stroke="#9d0e2d" stroke-width="1.51"/><path d="M-229,281L-164,357L-103,250Z" fill="#c31539" stroke="#c31539" stroke-width="1.51"/><path d="M-229,281L-244,585L-164,357Z" fill="#be1337" stroke="#be1337" stroke-width="1.51"/><path d="M-244,585L-232,801L-156,667Z" fill="#ac1031" stroke="#ac1031" stroke-width="1.51"/><path d="M-212,-206L-242,117L-184,-21Z" fill="#db1840" stroke="#db1840" stroke-width="1.51"/><path d="M-232,801L-225,1127L-187,960Z" fill="#990f2c" stroke="#990f2c" stroke-width="1.51"/><path d="M-232,801L-231,1247L-225,1127Z" fill="#91122b" stroke="#91122b" stroke-width="1.51"/><path d="M-232,801L-244,585L-231,1247Z" fill="#a00f2d" stroke="#a00f2d" stroke-width="1.51"/><path d="M-242,117L-244,585L-229,281Z" fill="#c41439" stroke="#c41439" stroke-width="1.51"/></svg>